<svg width="50" height="51" viewBox="0 0 50 51" fill="none" xmlns="http://www.w3.org/2000/svg">
<g clip-path="url(#clip0_402_444)">
<path d="M25 50.8182C38.8071 50.8182 50 39.6253 50 25.8182C50 12.0111 38.8071 0.818176 25 0.818176C11.1929 0.818176 0 12.0111 0 25.8182C0 39.6253 11.1929 50.8182 25 50.8182Z" fill="#D80027"/>
<path d="M25 37.7747C31.6034 37.7747 36.9565 32.4216 36.9565 25.8182C36.9565 19.2148 31.6034 13.8616 25 13.8616C18.3966 13.8616 13.0435 19.2148 13.0435 25.8182C13.0435 32.4216 18.3966 37.7747 25 37.7747Z" fill="#F0F0F0"/>
<path d="M26.4729 21.2465L28.5241 24.0732L31.8461 22.996L29.7917 25.8203L31.8427 28.6468L28.5218 27.5656L26.4674 30.3898L26.4695 26.8975L23.1487 25.8162L26.4708 24.7391L26.4729 21.2465Z" fill="#D80027"/>
<path d="M27.7174 32.8834C23.8154 32.8834 20.6521 29.7202 20.6521 25.8182C20.6521 21.9162 23.8154 18.753 27.7174 18.753C28.934 18.753 30.0788 19.0606 31.0782 19.6022C29.5103 18.0689 27.3663 17.1225 25 17.1225C20.1976 17.1225 16.3044 21.0157 16.3044 25.8181C16.3044 30.6205 20.1976 34.5137 25 34.5137C27.3663 34.5137 29.5104 33.5673 31.0782 32.034C30.0788 32.5758 28.934 32.8834 27.7174 32.8834Z" fill="#D80027"/>
</g>
<defs>
<clipPath id="clip0_402_444">
<rect width="50" height="50" fill="white" transform="translate(0 0.818176)"/>
</clipPath>
</defs>
</svg>
